<?xml version="1.0" encoding="utf-8" ?>
<svg xmlns="http://www.w3.org/2000/svg" xmlns:xlink="http://www.w3.org/1999/xlink" width="1019" height="976">
	<defs>
		<linearGradient id="gradient_0" gradientUnits="userSpaceOnUse" x1="843.07532" y1="803.06274" x2="682.24731" y2="489.41489">
			<stop offset="0" stop-color="#365070"/>
			<stop offset="1" stop-color="#5583B9"/>
		</linearGradient>
	</defs>
	<path fill="url(#gradient_0)" d="M509.138 623.173C520.618 617.357 531.677 610.211 542.818 603.718L613.847 562.41L756.514 479.565L820.25 442.561C832.14 435.664 844.291 428.999 855.965 421.757C867.101 414.849 877.94 407.285 888.919 400.115L983.955 338.19C994.641 331.316 1005.04 324 1015.84 317.305C1017.5 319.018 1017.59 320.258 1017.72 322.58C1018.61 338.989 1017.87 355.809 1017.87 372.276L1017.82 467.941L1017.64 603.41C1017.63 625.528 1018.24 647.81 1017.73 669.91C1017.7 671.237 1017.53 671.928 1016.82 673.033C1016.38 673.741 1015.98 674.182 1015.27 674.641C1001.09 683.854 985.963 692.036 971.432 700.721L870.808 760.541L592.063 926.566L536.111 959.921C527.353 965.142 517.533 970.029 509.335 976L508.491 976L508.484 975.639C510.493 969.983 509.385 929.811 509.39 921.169L508.833 710.27L508.883 651.619C508.889 642.611 507.966 631.956 509.138 623.173Z"/>
	<defs>
		<linearGradient id="gradient_1" gradientUnits="userSpaceOnUse" x1="178.7415" y1="776.9527" x2="334.28128" y2="517.68085">
			<stop offset="0" stop-color="#203663"/>
			<stop offset="1" stop-color="#3C61AF"/>
		</linearGradient>
	</defs>
	<path fill="url(#gradient_1)" d="M2.0915 318.117C16.353 325.585 30.1143 334.62 43.9263 342.927L121.228 389.434L364.103 535.207L468.313 598.119L495.779 614.666C500.009 617.221 505.512 619.833 509.138 623.173C507.966 631.956 508.889 642.611 508.883 651.619L508.833 710.27L509.39 921.169C509.385 929.811 510.493 969.983 508.484 975.639C501.455 972.203 494.7 967.637 487.995 963.589L452.263 942.036L337.425 873.249L107.648 735.42L33.5597 691.068C23.2061 684.892 12.6199 679.024 2.37673 672.681C1.77932 663.204 2.23347 653.438 2.24051 643.926L2.28713 589.23L2.42938 413.848L2.46982 355.204C2.464 342.859 2.6872 330.447 2.0915 318.117Z"/>
	<path fill="#196974" d="M2.0915 318.117L2.00901 317.129C3.50325 313.894 26.0469 297.519 30.7636 293.822L77.8144 256.882C85.2099 251.064 92.7381 244.008 100.694 239.079C104.367 236.804 108.445 235.016 112.264 232.986C125.179 226.122 138.354 219.826 151.337 213.11L281.149 146.411L320.665 126.38C327.611 122.881 334.943 119.662 341.651 115.744C346.705 112.792 351.407 109.057 356.343 105.876L394.562 81.5125L509.374 8.09591C516.041 12.8985 523.908 16.7471 531.052 20.8143L569.84 42.9576L699.04 116.799C718.799 128.102 739.069 138.942 758.487 150.791C773.878 160.182 788.936 170.226 804.141 179.925L922.839 256.056Q954.004 276.016 985.574 295.329C993.261 300.073 1010.01 309.287 1015.82 314.466C1016.27 315.831 1016.26 315.928 1015.84 317.305C1005.04 324 994.641 331.316 983.955 338.19L888.919 400.115C877.94 407.285 867.101 414.849 855.965 421.757C844.291 428.999 832.14 435.664 820.25 442.561L756.514 479.565L613.847 562.41L542.818 603.718C531.677 610.211 520.618 617.357 509.138 623.173C505.512 619.833 500.009 617.221 495.779 614.666L468.313 598.119L364.103 535.207L121.228 389.434L43.9263 342.927C30.1143 334.62 16.353 325.585 2.0915 318.117Z"/>
</svg>
