<?xml version="1.0" encoding="utf-8" ?>
<svg xmlns="http://www.w3.org/2000/svg" xmlns:xlink="http://www.w3.org/1999/xlink" width="1019" height="976">
	<path fill="#5B9253" d="M892.497 259.836C902.271 258.4 912.233 259.137 921.992 257.851C932.109 264.641 943.751 269.699 954.537 275.383C966.571 281.726 978.305 288.68 990.394 294.905C995.894 297.737 1014.34 305.651 1017.71 309.413C1017.41 310.147 1017.66 309.775 1016.78 310.385C1013.77 310.106 1011 309.014 1008.07 308.347C997.456 305.93 986.95 302.994 976.419 300.236C958.57 295.562 940.172 291.983 922.679 286.143C911.927 278.492 902.621 268.347 892.497 259.836Z"/>
	<path fill="#5B9253" d="M510.911 20.9951C525.474 25.4639 539.35 33.4066 553.34 39.4347L656.177 83.9701L749.144 123.895C757.285 127.411 773.316 132.465 779.814 137.312C786.885 142.585 812.47 178.21 817.878 186.957L817.215 187.208C811.416 186.625 744.78 143.627 733.836 137.069C727.796 134.026 721.257 131.612 715.071 128.814L669.587 108.317L529.534 45.8018C524.241 41.1812 512.954 27.9904 510.308 21.7417L510.911 20.9951Z"/>
	<path fill="#34722A" d="M223.71 167.293C250.396 152.025 278.261 138.572 305.691 124.682L405.064 73.5102L476.562 35.987C485.45 31.3787 497.307 24.2489 506.236 20.6869C507.785 20.0687 509.376 20.5795 510.911 20.9951L510.308 21.7417C512.954 27.9904 524.241 41.1812 529.534 45.8018C526.388 55.1307 525.245 80.2897 524.614 91.5749C524.285 97.462 524.677 104.986 522.377 110.523C507.785 112.374 493.117 116.517 478.762 119.73L403.751 136.371C395.728 138.143 387.708 140.04 379.65 141.633C375.476 142.458 370.193 142.66 366.352 144.297C358.566 146.325 350.418 147.373 342.477 148.672L305.467 154.774L252.985 163.548C245.487 164.817 237.998 166.529 230.464 167.511C228.258 167.799 225.732 168.434 223.71 167.293Z"/>
	<path fill="#2E8219" d="M733.836 137.069C744.78 143.627 811.416 186.625 817.215 187.208L817.878 186.957C822.197 191.276 827.995 194.66 833.048 198.095Q846.013 206.929 859.11 215.566C880.13 229.562 900.783 244.134 921.992 257.851C912.233 259.137 902.271 258.4 892.497 259.836C884.607 263.239 876.99 267.533 869.32 271.428Q851.242 280.617 832.992 289.457L767.209 321.677C756.651 326.918 745.891 331.999 735.535 337.617C727.566 344.868 721.408 354.494 712.593 360.768C711.151 362.703 709.593 365.611 707.149 366.254L706.614 366.089C697.371 357.013 686.114 349.512 675.967 341.443C659.531 328.373 643.349 314.695 626.484 302.201C629.969 297.68 698.789 239.169 703.111 237.173C704.185 234.941 706.726 222.905 707.944 219.134C716.757 191.838 724.611 164.226 733.836 137.069Z"/>
	<path fill="#1A510F" d="M626.484 302.201C629.969 297.68 698.789 239.169 703.111 237.173C704.833 278.398 709.98 319.574 712.593 360.768C711.151 362.703 709.593 365.611 707.149 366.254L706.614 366.089C697.371 357.013 686.114 349.512 675.967 341.443C659.531 328.373 643.349 314.695 626.484 302.201Z"/>
	<path fill="#1F6213" d="M529.534 45.8018L669.587 108.317L715.071 128.814C721.257 131.612 727.796 134.026 733.836 137.069C724.611 164.226 716.757 191.838 707.944 219.134C706.726 222.905 704.185 234.941 703.111 237.173C698.789 239.169 629.969 297.68 626.484 302.201C620.576 300.076 612.677 295.418 606.417 292.769C574.629 279.315 543.479 264.382 511.641 251.054L510.47 250.738L509.016 250.043C507.417 245.948 507.203 237.686 506.566 232.925C503.014 206.377 499.627 179.478 497.316 152.801C504.598 138.097 515.188 125.2 522.377 110.523C524.677 104.986 524.285 97.462 524.614 91.5749C525.245 80.2897 526.388 55.1307 529.534 45.8018Z"/>
	<path fill="#34722A" d="M366.352 144.297C370.193 142.66 375.476 142.458 379.65 141.633C387.708 140.04 395.728 138.143 403.751 136.371L478.762 119.73C493.117 116.517 507.785 112.374 522.377 110.523C515.188 125.2 504.598 138.097 497.316 152.801C499.627 179.478 503.014 206.377 506.566 232.925C507.203 237.686 507.417 245.948 509.016 250.043L510.47 250.738C509.069 253.734 503.454 255.109 500.397 256.219C490.322 259.88 479.698 262.785 469.818 266.88C462.293 269.578 454.62 272.108 447.219 275.129Q443.37 288.279 439.795 301.506C438.238 307.384 436.984 313.522 435.066 319.284L434.836 319.918C433.931 326.794 433.876 333.886 433.467 340.817Q432.354 360.673 430.84 380.502C430.273 387.72 430.056 395.881 428.132 402.876L448.37 416.761C453.648 419.355 457.667 422.852 462.329 426.365C452.031 432.739 440.149 437.066 429.187 442.203C418.727 447.106 404.922 455.166 393.939 457.941C389.162 456.174 384.41 452.914 380.001 450.322C371.985 445.611 364.017 440.791 355.932 436.201L236.838 367.437L205.693 349.314C198.198 344.937 190.737 340.069 182.655 336.863C170.736 329.139 160.414 318.078 149.869 308.613C133.373 293.807 116.645 279.299 100.334 264.284C92.67 267.248 85.4034 271.411 78.0085 275.002L37.1529 294.82C30.0905 298.299 22.8998 302.676 15.4626 305.218C13.5415 305.874 12.4118 306.186 10.5042 305.228C18.2561 299.29 27.0777 294.24 35.2833 288.897L95.8579 250.022Q136.162 223.171 176.941 197.044C191.636 187.441 206.118 177.098 221.355 168.378L223.71 167.293C225.732 168.434 228.258 167.799 230.464 167.511C237.998 166.529 245.487 164.817 252.985 163.548L305.467 154.774L342.477 148.672C350.418 147.373 358.566 146.325 366.352 144.297Z"/>
	<path fill="#5B9253" d="M262.195 298.8C272.161 301.96 282.068 309.432 291.069 314.723Q311.539 326.766 332.294 338.31C336.754 340.792 341.604 344.721 346.343 346.408L398.504 382.493C408.362 389.318 418.078 396.339 428.132 402.876L448.37 416.761C445.892 416.848 443.242 414.774 441.202 413.53C427.669 405.275 414.443 396.392 401.099 387.829L327.414 340.7L283.956 312.923C276.798 308.351 268.874 304.028 262.195 298.8Z"/>
	<path fill="#1A510F" d="M349.347 343.681C350.679 344.427 351.929 344.085 353.356 343.808C359.622 342.592 365.824 340.175 371.926 338.301L406.98 327.66C416.139 324.851 425.388 321.569 434.836 319.918C433.931 326.794 433.876 333.886 433.467 340.817Q432.354 360.673 430.84 380.502C430.273 387.72 430.056 395.881 428.132 402.876C418.078 396.339 408.362 389.318 398.504 382.493L346.343 346.408C347.288 345.434 348.32 344.566 349.347 343.681Z"/>
	<path fill="#1F6213" d="M223.71 167.293C225.732 168.434 228.258 167.799 230.464 167.511C237.998 166.529 245.487 164.817 252.985 163.548L305.467 154.774L342.477 148.672C350.418 147.373 358.566 146.325 366.352 144.297Q363.32 179.421 359.753 214.494C358.769 224.559 358.267 234.887 356.872 244.891C356.693 246.171 356.489 247.305 355.677 248.344C346.613 243.277 337.851 237.489 328.894 232.207Q293.384 211.568 258.169 190.429Q246.965 183.741 235.648 177.245C230.997 174.556 225.347 171.977 221.355 168.378L223.71 167.293Z"/>
	<path fill="#2E8219" d="M366.352 144.297C370.193 142.66 375.476 142.458 379.65 141.633C387.708 140.04 395.728 138.143 403.751 136.371L478.762 119.73C493.117 116.517 507.785 112.374 522.377 110.523C515.188 125.2 504.598 138.097 497.316 152.801C499.627 179.478 503.014 206.377 506.566 232.925C507.203 237.686 507.417 245.948 509.016 250.043L510.47 250.738C509.069 253.734 503.454 255.109 500.397 256.219C490.322 259.88 479.698 262.785 469.818 266.88C462.293 269.578 454.62 272.108 447.219 275.129Q443.37 288.279 439.795 301.506C438.238 307.384 436.984 313.522 435.066 319.284L434.836 319.918C425.388 321.569 416.139 324.851 406.98 327.66L371.926 338.301C365.824 340.175 359.622 342.592 353.356 343.808C351.929 344.085 350.679 344.427 349.347 343.681C348.32 344.566 347.288 345.434 346.343 346.408C341.604 344.721 336.754 340.792 332.294 338.31Q311.539 326.766 291.069 314.723C282.068 309.432 272.161 301.96 262.195 298.8C258.271 297.362 255.324 295.508 252.154 292.807C259.565 288.307 268.514 285.74 276.518 282.362L323.348 262.523C334.22 257.978 345.281 253.938 355.677 248.344C356.489 247.305 356.693 246.171 356.872 244.891C358.267 234.887 358.769 224.559 359.753 214.494Q363.32 179.421 366.352 144.297Z"/>
	<path fill="#1F3C1D" d="M509.016 250.043L510.47 250.738C509.069 253.734 503.454 255.109 500.397 256.219C490.322 259.88 479.698 262.785 469.818 266.88C462.293 269.578 454.62 272.108 447.219 275.129Q443.37 288.279 439.795 301.506C438.238 307.384 436.984 313.522 435.066 319.284L434.836 319.918C425.388 321.569 416.139 324.851 406.98 327.66L371.926 338.301C365.824 340.175 359.622 342.592 353.356 343.808C351.929 344.085 350.679 344.427 349.347 343.681C362.976 331.509 377.315 319.97 391.279 308.176C399.197 301.488 410.288 290.633 418.955 285.908C424.027 283.142 429.912 281.199 435.291 279.063Q452.392 272.336 469.581 265.837C482.321 260.186 495.726 254.245 509.016 250.043Z"/>
	<path fill="#2E8219" d="M510.47 250.738L511.641 251.054C543.479 264.382 574.629 279.315 606.417 292.769C612.677 295.418 620.576 300.076 626.484 302.201C643.349 314.695 659.531 328.373 675.967 341.443C686.114 349.512 697.371 357.013 706.614 366.089L707.149 366.254C709.593 365.611 711.151 362.703 712.593 360.768C721.408 354.494 727.566 344.868 735.535 337.617C743.401 354.026 752.128 370.001 759.664 386.567C749.762 410.524 741.312 435.04 732.306 459.339C728.14 470.579 722.052 482.302 719.643 494.022L719.277 494.237C714.002 498.16 708.094 501.234 702.428 504.551L674.7 520.803L584.09 573.93L530.89 605.241C523.052 609.867 515.093 615.949 506.569 619.156L505.978 619.473C500.535 616.926 495.39 613.391 490.234 610.291L462.707 593.782L424.341 570.894C415.826 565.834 407.131 560.964 398.912 555.431C397.807 547.063 398.081 538.504 397.704 530.077C396.631 506.139 396.362 481.755 393.939 457.941C404.922 455.166 418.727 447.106 429.187 442.203C440.149 437.066 452.031 432.739 462.329 426.365C457.667 422.852 453.648 419.355 448.37 416.761L428.132 402.876C430.056 395.881 430.273 387.72 430.84 380.502Q432.354 360.673 433.467 340.817C433.876 333.886 433.931 326.794 434.836 319.918L435.066 319.284C436.984 313.522 438.238 307.384 439.795 301.506Q443.37 288.279 447.219 275.129C454.62 272.108 462.293 269.578 469.818 266.88C479.698 262.785 490.322 259.88 500.397 256.219C503.454 255.109 509.069 253.734 510.47 250.738Z"/>
	<path fill="#5B9253" d="M607.895 429.118C618.718 430.213 634.81 430.817 645.008 433.455C655.886 441.382 666.162 450.265 676.465 458.922Q696.989 476.419 718.026 493.295C717.407 493.428 717.51 493.422 716.747 493.485C710.293 494.017 702.22 490.023 695.947 488.464C686.007 485.993 674.2 484.768 664.997 480.206C656.968 476.226 649.635 467.358 643.04 461.226C631.456 450.454 619.95 439.353 607.895 429.118Z"/>
	<path fill="#34722A" d="M551.302 464.355C569.715 453.856 587.446 440.696 606.102 431.095C599.192 442.563 589.541 453.077 581.293 463.638L530.083 529.179C513.176 522.319 495.953 516.251 479.055 509.371C492.057 500.218 506.164 492.387 519.727 484.088C528.982 478.425 537.969 472.065 547.438 466.798C548.762 466.093 550.037 465.169 551.302 464.355Z"/>
	<path fill="#1F6213" d="M398.912 555.431C407.257 552.319 414.894 546.448 422.587 541.961C441.332 531.03 459.961 519.671 479.055 509.371C495.953 516.251 513.176 522.319 530.083 529.179C525.218 543.614 522.256 558.592 518.416 573.31C514.459 588.473 509.517 603.784 506.569 619.156L505.978 619.473C500.535 616.926 495.39 613.391 490.234 610.291L462.707 593.782L424.341 570.894C415.826 565.834 407.131 560.964 398.912 555.431Z"/>
	<path fill="#1F6213" d="M735.535 337.617C743.401 354.026 752.128 370.001 759.664 386.567C749.762 410.524 741.312 435.04 732.306 459.339C728.14 470.579 722.052 482.302 719.643 494.022L719.277 494.237L718.026 493.295Q696.989 476.419 676.465 458.922C666.162 450.265 655.886 441.382 645.008 433.455C649.283 426.246 657.15 419.829 663.029 413.801C668.322 408.375 706.031 369.989 707.149 366.254C709.593 365.611 711.151 362.703 712.593 360.768C721.408 354.494 727.566 344.868 735.535 337.617Z"/>
	<path fill="#2E8219" d="M462.329 426.365C471.117 432.036 481.147 435.813 490.666 440.079C502.291 445.289 513.739 450.935 525.277 456.338C532.606 459.769 540.366 462.885 547.438 466.798C537.969 472.065 528.982 478.425 519.727 484.088C506.164 492.387 492.057 500.218 479.055 509.371C459.961 519.671 441.332 531.03 422.587 541.961C414.894 546.448 407.257 552.319 398.912 555.431C397.807 547.063 398.081 538.504 397.704 530.077C396.631 506.139 396.362 481.755 393.939 457.941C404.922 455.166 418.727 447.106 429.187 442.203C440.149 437.066 452.031 432.739 462.329 426.365Z"/>
	<path fill="#1F6213" d="M435.066 319.284C441.694 323.879 456.328 329.112 464.417 332.779Q499.64 348.666 534.686 364.939C541.056 367.877 549.55 369.982 554.973 374.463Q552.035 419.364 551.302 464.355C550.037 465.169 548.762 466.093 547.438 466.798C540.366 462.885 532.606 459.769 525.277 456.338C513.739 450.935 502.291 445.289 490.666 440.079C481.147 435.813 471.117 432.036 462.329 426.365C457.667 422.852 453.648 419.355 448.37 416.761L428.132 402.876C430.056 395.881 430.273 387.72 430.84 380.502Q432.354 360.673 433.467 340.817C433.876 333.886 433.931 326.794 434.836 319.918L435.066 319.284Z"/>
	<path fill="#34722A" d="M510.47 250.738L511.641 251.054C543.479 264.382 574.629 279.315 606.417 292.769C612.677 295.418 620.576 300.076 626.484 302.201C643.349 314.695 659.531 328.373 675.967 341.443C686.114 349.512 697.371 357.013 706.614 366.089C704.476 366.018 701.965 364.05 700.196 362.928C693.495 358.677 687.113 353.806 680.572 349.305C662.421 336.816 644.32 324.099 625.867 312.069C619.116 319.361 611.092 325.494 603.533 331.928L572.187 358.902C566.444 363.842 559.744 368.559 554.973 374.463C549.55 369.982 541.056 367.877 534.686 364.939Q499.64 348.666 464.417 332.779C456.328 329.112 441.694 323.879 435.066 319.284C436.984 313.522 438.238 307.384 439.795 301.506Q443.37 288.279 447.219 275.129C454.62 272.108 462.293 269.578 469.818 266.88C479.698 262.785 490.322 259.88 500.397 256.219C503.454 255.109 509.069 253.734 510.47 250.738Z"/>
	<path fill="#5B9253" d="M511.641 251.054C543.479 264.382 574.629 279.315 606.417 292.769C612.677 295.418 620.576 300.076 626.484 302.201C643.349 314.695 659.531 328.373 675.967 341.443C686.114 349.512 697.371 357.013 706.614 366.089C704.476 366.018 701.965 364.05 700.196 362.928C693.495 358.677 687.113 353.806 680.572 349.305C662.421 336.816 644.32 324.099 625.867 312.069C602.686 300.635 579.942 287.987 557.077 275.914C543.121 268.546 527.566 261.321 514.142 253.453C513.06 252.819 512.098 252.275 511.641 251.054Z"/>
	<path fill="#794216" d="M735.535 337.617C745.891 331.999 756.651 326.918 767.209 321.677L832.992 289.457Q851.242 280.617 869.32 271.428C876.99 267.533 884.607 263.239 892.497 259.836C902.621 268.347 911.927 278.492 922.679 286.143C940.172 291.983 958.57 295.562 976.419 300.236C986.95 302.994 997.456 305.93 1008.07 308.347C1011 309.014 1013.77 310.106 1016.78 310.385C1017.66 309.775 1017.41 310.147 1017.71 309.413L1018.57 309.831C1018.94 311.375 1018.91 311.893 1018.33 313.373C1020.04 317.746 1019.02 465.963 1019.02 482.408L1019.01 607.642C1019.01 628.92 1019.51 650.336 1018.96 671.599C1018.93 672.694 1018.73 673.493 1018.33 674.509C1019.95 678.661 1019.02 735.488 1019.02 743.659L1019 911.659C1019 919.317 1019.78 972.02 1018.65 975.051C1018.5 975.46 1018.37 975.608 1018.13 976L511.618 976L508.478 976L507.057 788.47Q507.053 703.968 505.978 619.473L506.569 619.156C515.093 615.949 523.052 609.867 530.89 605.241L584.09 573.93L674.7 520.803L702.428 504.551C708.094 501.234 714.002 498.16 719.277 494.237L719.643 494.022C722.052 482.302 728.14 470.579 732.306 459.339C741.312 435.04 749.762 410.524 759.664 386.567C752.128 370.001 743.401 354.026 735.535 337.617ZM511.618 976L1018.13 976C1018.37 975.608 1018.5 975.46 1018.65 975.051C1019.78 972.02 1019 919.317 1019 911.659L1019.02 743.659C1019.02 735.488 1019.95 678.661 1018.33 674.509C1007.77 681.399 996.478 687.193 985.647 693.65L906.917 740.543L625.903 907.756C596.765 925.327 567.321 942.387 538.331 960.201C529.574 965.582 519.945 969.993 511.618 976Z"/>
	<path fill="#2E8219" d="M735.535 337.617C745.891 331.999 756.651 326.918 767.209 321.677L832.992 289.457Q851.242 280.617 869.32 271.428C876.99 267.533 884.607 263.239 892.497 259.836C902.621 268.347 911.927 278.492 922.679 286.143C940.172 291.983 958.57 295.562 976.419 300.236C986.95 302.994 997.456 305.93 1008.07 308.347C1011 309.014 1013.77 310.106 1016.78 310.385C1017.66 309.775 1017.41 310.147 1017.71 309.413L1018.57 309.831C1018.94 311.375 1018.91 311.893 1018.33 313.373C996.28 328.215 972.805 341.153 950.027 354.844L832.729 425.822L754.999 472.955C743.353 479.981 732.018 488.378 719.643 494.022C722.052 482.302 728.14 470.579 732.306 459.339C741.312 435.04 749.762 410.524 759.664 386.567C752.128 370.001 743.401 354.026 735.535 337.617Z"/>
	<path fill="#34722A" d="M735.535 337.617C745.891 331.999 756.651 326.918 767.209 321.677L832.992 289.457Q851.242 280.617 869.32 271.428C876.99 267.533 884.607 263.239 892.497 259.836C902.621 268.347 911.927 278.492 922.679 286.143L815.434 351.974L780.876 373.123C773.772 377.467 766.379 381.638 759.664 386.567C752.128 370.001 743.401 354.026 735.535 337.617Z"/>
	<path fill="#341805" d="M100.334 264.284C116.645 279.299 133.373 293.807 149.869 308.613C160.414 318.078 170.736 329.139 182.655 336.863C190.737 340.069 198.198 344.937 205.693 349.314L236.838 367.437L355.932 436.201C364.017 440.791 371.985 445.611 380.001 450.322C384.41 452.914 389.162 456.174 393.939 457.941C396.362 481.755 396.631 506.139 397.704 530.077C398.081 538.504 397.807 547.063 398.912 555.431C407.131 560.964 415.826 565.834 424.341 570.894L462.707 593.782L490.234 610.291C495.39 613.391 500.535 616.926 505.978 619.473Q507.053 703.968 507.057 788.47L508.478 976L505.747 976L0 976L0 675.552L0 314.969L0 311.83Q5.19088 308.432 10.5042 305.228C12.4118 306.186 13.5415 305.874 15.4626 305.218C22.8998 302.676 30.0905 298.299 37.1529 294.82L78.0085 275.002C85.4034 271.411 92.67 267.248 100.334 264.284ZM0 675.552L0 976L505.747 976C495.654 969.074 484.441 963.277 473.896 957.045L418.794 924.243L270.305 836.142L76.3869 720.773C50.9164 705.726 25.8905 689.882 0 675.552Z"/>
	<path fill="#1A510F" d="M100.334 264.284C116.645 279.299 133.373 293.807 149.869 308.613C160.414 318.078 170.736 329.139 182.655 336.863C190.737 340.069 198.198 344.937 205.693 349.314L236.838 367.437L355.932 436.201C364.017 440.791 371.985 445.611 380.001 450.322C384.41 452.914 389.162 456.174 393.939 457.941C396.362 481.755 396.631 506.139 397.704 530.077C398.081 538.504 397.807 547.063 398.912 555.431L395.257 553.249C365.755 535.731 336.69 517.615 307.44 499.69Q202.746 435.195 97.3636 371.827Q49.0881 342.702 0 314.969L0 311.83Q5.19088 308.432 10.5042 305.228C12.4118 306.186 13.5415 305.874 15.4626 305.218C22.8998 302.676 30.0905 298.299 37.1529 294.82L78.0085 275.002C85.4034 271.411 92.67 267.248 100.334 264.284Z"/>
	<path fill="#1F6213" d="M182.655 336.863C190.737 340.069 198.198 344.937 205.693 349.314L236.838 367.437L355.932 436.201C364.017 440.791 371.985 445.611 380.001 450.322C384.41 452.914 389.162 456.174 393.939 457.941C396.362 481.755 396.631 506.139 397.704 530.077C398.081 538.504 397.807 547.063 398.912 555.431L395.257 553.249C393.392 548.874 388.722 544.671 385.449 541.211C378.634 534.009 371.258 527.313 364.188 520.362C354.131 510.474 344.275 500.369 334.324 490.373L221.858 377.305C214.136 369.577 186.737 344.085 182.655 336.863Z"/>
</svg>
