<?xml version="1.0" encoding="utf-8" ?>
<svg xmlns="http://www.w3.org/2000/svg" xmlns:xlink="http://www.w3.org/1999/xlink" width="1019" height="976">
	<path fill="#89BA00" d="M0 310.795C11.778 304.073 23.2311 296.634 34.8567 289.639L109.235 245.086Q246.191 161.96 384.351 80.8524L474.762 27.4255C489.484 18.7225 505.668 8.05168 520.683 0.473732L570.68 29.4531C579.544 34.5909 588.654 39.5201 597.273 45.0516L606.726 75.7768Q623.382 86.475 640.226 96.8754C633.706 99.2703 626.928 104.669 620.989 108.399L580.144 134.08C576.245 136.727 560.415 150.038 557.077 149.603C556.534 149.532 555.937 149.272 555.414 149.106C554.823 148.919 555.08 148.969 554.454 148.959L611.311 183.636C621.862 190.012 636.034 197.62 645.599 204.725L561.906 262.957L537.398 280.048C533.369 282.862 529.274 286.121 525.028 288.583C522.266 304.781 522.151 321.551 519.954 337.856C511.492 327.645 503.241 317.119 494.45 307.199C463.396 326.021 432.038 344.526 401.33 363.894C387.55 355.894 374.066 347.221 360.457 338.923L267.303 282.174C265.091 296.931 263.882 312.151 262.538 327.022C232.145 344.824 201.27 361.821 170.742 379.393C166.636 367.052 162.714 354.404 157.915 342.325C147.178 335.444 134.934 330.004 123.582 324.115C107.075 315.55 90.7532 306.579 74.1292 298.248C66.0427 299.29 57.9645 301.088 49.9487 302.589L0 311.966L0 310.795Z"/>
	<path fill="#97D767" d="M597.273 45.0516L606.726 75.7768Q623.382 86.475 640.226 96.8754C633.706 99.2703 626.928 104.669 620.989 108.399L580.144 134.08C576.245 136.727 560.415 150.038 557.077 149.603C556.534 149.532 555.937 149.272 555.414 149.106C554.823 148.919 555.08 148.969 554.454 148.959C551.095 147.804 547.559 145 544.367 143.283C537.688 139.69 525.205 134.479 519.784 130.239C517.362 124.341 509.936 121.554 504.568 118.671L410.028 176.314C403.437 180.322 378.743 194.221 374.432 198.382C367.431 205.45 360.212 212.297 353.217 219.367Q344.233 212.845 335.075 206.57C343.992 199.784 357.359 192.604 367.142 186.594L432.264 146.502L539.086 80.7245C558.397 68.8228 577.545 56.2296 597.273 45.0516Z"/>
	<path fill="#89BA00" d="M606.726 75.7768Q623.382 86.475 640.226 96.8754C633.706 99.2703 626.928 104.669 620.989 108.399L580.144 134.08C576.245 136.727 560.415 150.038 557.077 149.603C556.534 149.532 555.937 149.272 555.414 149.106C554.823 148.919 555.08 148.969 554.454 148.959C551.095 147.804 547.559 145 544.367 143.283C537.688 139.69 525.205 134.479 519.784 130.239C548.591 111.82 578.043 94.3844 606.726 75.7768Z"/>
	<path fill="#9ACE00" d="M374.432 198.382C378.743 194.221 403.437 180.322 410.028 176.314L504.568 118.671C509.936 121.554 517.362 124.341 519.784 130.239C525.205 134.479 537.688 139.69 544.367 143.283C547.559 145 551.095 147.804 554.454 148.959L611.311 183.636C621.862 190.012 636.034 197.62 645.599 204.725L561.906 262.957L537.398 280.048C533.369 282.862 529.274 286.121 525.028 288.583C522.266 304.781 522.151 321.551 519.954 337.856C511.492 327.645 503.241 317.119 494.45 307.199C479.835 297.004 462.246 287.07 446.885 277.531L353.217 219.367C360.212 212.297 367.431 205.45 374.432 198.382Z"/>
	<path fill="#79A200" d="M374.432 198.382L479.452 261.311L510.435 279.889C515.12 282.708 520.086 286.319 525.028 288.583C522.266 304.781 522.151 321.551 519.954 337.856C511.492 327.645 503.241 317.119 494.45 307.199C479.835 297.004 462.246 287.07 446.885 277.531L353.217 219.367C360.212 212.297 367.431 205.45 374.432 198.382Z"/>
	<path fill="#9ACE00" d="M74.1292 298.248C79.1212 294.635 85.8139 291.87 91.295 288.98L127.738 269.716L230.344 215.362C237.904 211.357 263.915 196.499 269.599 195.217C273.721 194.287 312.333 193.514 315.252 194.502C321.952 196.773 329.101 202.674 335.075 206.57Q344.233 212.845 353.217 219.367L446.885 277.531C462.246 287.07 479.835 297.004 494.45 307.199C463.396 326.021 432.038 344.526 401.33 363.894C387.55 355.894 374.066 347.221 360.457 338.923L267.303 282.174C265.091 296.931 263.882 312.151 262.538 327.022C232.145 344.824 201.27 361.821 170.742 379.393C166.636 367.052 162.714 354.404 157.915 342.325C147.178 335.444 134.934 330.004 123.582 324.115C107.075 315.55 90.7532 306.579 74.1292 298.248Z"/>
	<path fill="#97D767" d="M157.915 342.325C169.812 334.867 182.809 328.519 195.131 321.752L267.303 282.174C265.091 296.931 263.882 312.151 262.538 327.022C232.145 344.824 201.27 361.821 170.742 379.393C166.636 367.052 162.714 354.404 157.915 342.325Z"/>
	<path fill="#89BA00" d="M658.393 86.0512C670.675 91.2529 682.735 98.3506 694.615 104.471L765.354 140.909L840.034 179.344C852.033 185.519 865.083 191.325 876.609 198.235L902.251 242.816L957.027 269.895C961.653 272.174 978.933 279.766 981.517 282.385C926.55 317.758 870.63 351.766 815.236 386.475L762.058 419.755C754.958 424.208 744.232 431.948 736.969 435.282C722.253 435.237 707.211 434.585 692.535 435.341L599.766 497.374L572.548 515.55C567.307 519.052 561.785 522.408 556.812 526.277C514.955 481.634 471.964 437.931 429.517 393.842C419.929 384.065 410.699 373.884 401.33 363.894C432.038 344.526 463.396 326.021 494.45 307.199C503.241 317.119 511.492 327.645 519.954 337.856C522.151 321.551 522.266 304.781 525.028 288.583C529.274 286.121 533.369 282.862 537.398 280.048L561.906 262.957L645.599 204.725C636.034 197.62 621.862 190.012 611.311 183.636L554.454 148.959C555.08 148.969 554.823 148.919 555.414 149.106C555.937 149.272 556.534 149.532 557.077 149.603C560.415 150.038 576.245 136.727 580.144 134.08L620.989 108.399C626.928 104.669 633.706 99.2703 640.226 96.8754C646.021 92.8352 652.152 89.3535 658.393 86.0512Z"/>
	<path fill="#97D767" d="M876.609 198.235L902.251 242.816L791.084 313.813C791.08 297.299 791.685 280.551 790.994 264.066C791.11 259.71 791.007 255.347 790.957 250.991C794.634 248.317 798.85 246.058 802.725 243.661L827.494 228.411C843.824 218.386 859.927 207.653 876.609 198.235Z"/>
	<path fill="#97D767" d="M645.599 204.725C656.386 218.092 665.235 233.283 676.319 246.348L429.517 393.842C419.929 384.065 410.699 373.884 401.33 363.894C432.038 344.526 463.396 326.021 494.45 307.199C503.241 317.119 511.492 327.645 519.954 337.856C522.151 321.551 522.266 304.781 525.028 288.583C529.274 286.121 533.369 282.862 537.398 280.048L561.906 262.957L645.599 204.725Z"/>
	<path fill="#9ACE00" d="M658.393 86.0512C670.675 91.2529 682.735 98.3506 694.615 104.471L765.354 140.909L840.034 179.344C852.033 185.519 865.083 191.325 876.609 198.235C859.927 207.653 843.824 218.386 827.494 228.411L802.725 243.661C798.85 246.058 794.634 248.317 790.957 250.991C791.007 255.347 791.11 259.71 790.994 264.066C790.377 269.592 790.771 275.572 790.791 281.137Q790.929 297.407 790.764 313.676C775.539 305.503 760.721 296.089 745.805 287.318C722.637 273.695 699.284 260.306 676.319 246.348C665.235 233.283 656.386 218.092 645.599 204.725C636.034 197.62 621.862 190.012 611.311 183.636L554.454 148.959C555.08 148.969 554.823 148.919 555.414 149.106C555.937 149.272 556.534 149.532 557.077 149.603C560.415 150.038 576.245 136.727 580.144 134.08L620.989 108.399C626.928 104.669 633.706 99.2703 640.226 96.8754C646.021 92.8352 652.152 89.3535 658.393 86.0512Z"/>
	<path fill="#79A200" d="M580.144 134.08C598.428 144.689 617.124 154.673 635.624 164.904L733.94 219.301C752.895 229.791 772.458 239.739 790.957 250.991C791.007 255.347 791.11 259.71 790.994 264.066C790.377 269.592 790.771 275.572 790.791 281.137Q790.929 297.407 790.764 313.676C775.539 305.503 760.721 296.089 745.805 287.318C722.637 273.695 699.284 260.306 676.319 246.348C665.235 233.283 656.386 218.092 645.599 204.725C636.034 197.62 621.862 190.012 611.311 183.636L554.454 148.959C555.08 148.969 554.823 148.919 555.414 149.106C555.937 149.272 556.534 149.532 557.077 149.603C560.415 150.038 576.245 136.727 580.144 134.08Z"/>
	<path fill="#87828B" d="M981.517 282.385C985.396 284.027 1016.56 307.59 1018.29 309.901C1018.91 311.772 1019.1 312.415 1018.33 314.387C1018.71 315.345 1018.92 316.051 1018.96 317.095C1019.45 330.629 1019.01 344.333 1019.01 357.888L1019.02 438.224L1019.01 600.31C1019.01 609.599 1020.01 666.753 1018.34 671.025C1019.15 673.136 1019 675.256 1019.01 677.479L1019 901.866C1019 909.709 1019.89 971.71 1018.65 975.056C1018.5 975.447 1018.36 975.629 1018.13 976L510.009 976L509.997 975.619C509.294 965.225 509.811 954.552 509.815 944.122L509.828 884.679L509.82 698.329L509.844 645.623C509.862 638.735 510.85 627.436 509.534 621.155L508.18 620.536L509.655 620.399C525.906 589.322 540.92 557.547 556.812 526.277C561.785 522.408 567.307 519.052 572.548 515.55L599.766 497.374L692.535 435.341C707.211 434.585 722.253 435.237 736.969 435.282C744.232 431.948 754.958 424.208 762.058 419.755L815.236 386.475C870.63 351.766 926.55 317.758 981.517 282.385ZM509.997 975.619L510.009 976L1018.13 976C1018.36 975.629 1018.5 975.447 1018.65 975.056C1019.89 971.71 1019 909.709 1019 901.866L1019.01 677.479C1019 675.256 1019.15 673.136 1018.34 671.025C1003.62 680.228 988.554 688.918 973.651 697.822L904.088 739.55L682.245 872.508L564.204 943.246L527.429 965.294C521.798 968.668 515.919 972.862 509.997 975.619Z"/>
	<path fill="#97D767" d="M981.517 282.385C985.396 284.027 1016.56 307.59 1018.29 309.901C1018.91 311.772 1019.1 312.415 1018.33 314.387C1008.94 320.944 998.289 326.45 988.415 332.298L929.18 367.381L736.96 481.405L736.969 435.282C744.232 431.948 754.958 424.208 762.058 419.755L815.236 386.475C870.63 351.766 926.55 317.758 981.517 282.385Z"/>
	<path fill="#97D767" d="M692.535 435.341C707.211 434.585 722.253 435.237 736.969 435.282L736.96 481.405L509.655 620.399C525.906 589.322 540.92 557.547 556.812 526.277C561.785 522.408 567.307 519.052 572.548 515.55L599.766 497.374L692.535 435.341Z"/>
	<path fill="#79A200" d="M692.535 435.341C707.211 434.585 722.253 435.237 736.969 435.282L736.96 481.405L692.535 435.341Z"/>
	<path fill="#595C79" d="M267.303 282.174L360.457 338.923C374.066 347.221 387.55 355.894 401.33 363.894C410.699 373.884 419.929 384.065 429.517 393.842C471.964 437.931 514.955 481.634 556.812 526.277C540.92 557.547 525.906 589.322 509.655 620.399L508.18 620.536L509.534 621.155C510.85 627.436 509.862 638.735 509.844 645.623L509.82 698.329L509.828 884.679L509.815 944.122C509.811 954.552 509.294 965.225 509.997 975.619L510.009 976L509.411 976L0 976L0 670.991L0 313.916L0 311.966L49.9487 302.589C57.9645 301.088 66.0427 299.29 74.1292 298.248C90.7532 306.579 107.075 315.55 123.582 324.115C134.934 330.004 147.178 335.444 157.915 342.325C162.714 354.404 166.636 367.052 170.742 379.393C201.27 361.821 232.145 344.824 262.538 327.022C263.882 312.151 265.091 296.931 267.303 282.174ZM0 670.991L0 976L509.411 976C505.636 972.651 500.113 970.052 495.742 967.436L467.487 950.567L362.604 887.826L122.707 744.282L44.6634 697.585C29.8275 688.697 15.0918 679.429 0 670.991Z"/>
	<path fill="#79A200" d="M267.303 282.174L360.457 338.923C374.066 347.221 387.55 355.894 401.33 363.894C410.699 373.884 419.929 384.065 429.517 393.842C471.964 437.931 514.955 481.634 556.812 526.277C540.92 557.547 525.906 589.322 509.655 620.399L508.18 620.536C506.864 619.846 505.673 618.976 504.447 618.14C497.999 615.041 491.847 610.886 485.724 607.172L453.726 587.779L347.569 523.6L0 313.916L0 311.966L49.9487 302.589C57.9645 301.088 66.0427 299.29 74.1292 298.248C90.7532 306.579 107.075 315.55 123.582 324.115C134.934 330.004 147.178 335.444 157.915 342.325C162.714 354.404 166.636 367.052 170.742 379.393C201.27 361.821 232.145 344.824 262.538 327.022C263.882 312.151 265.091 296.931 267.303 282.174Z"/>
	<path fill="#97D767" d="M337.686 481.004C346.733 474.736 357.332 469.631 366.939 464.185L428.532 429.166C430.048 435.396 433.49 441.809 436.029 447.738L451.342 483.462L487.31 567.795C494.783 585.303 502.502 602.759 509.655 620.399L508.18 620.536C506.864 619.846 505.673 618.976 504.447 618.14C499.615 612.847 493.023 608.294 487.451 603.733L454.071 576.414L337.686 481.004Z"/>
	<path fill="#89BA00" d="M170.742 379.393C201.27 361.821 232.145 344.824 262.538 327.022C277.096 336.841 292.756 345.537 307.788 354.646L391.973 405.712C398.821 409.865 405.639 414.084 412.542 418.145C416.908 420.713 421.582 423.081 425.77 425.913C427.01 426.751 428.207 427.632 428.532 429.166L366.939 464.185C357.332 469.631 346.733 474.736 337.686 481.004L201.555 398.059C196.236 394.823 173.176 382.398 170.742 379.393Z"/>
	<path fill="#79A200" d="M267.303 282.174L360.457 338.923C374.066 347.221 387.55 355.894 401.33 363.894C410.699 373.884 419.929 384.065 429.517 393.842C471.964 437.931 514.955 481.634 556.812 526.277C540.92 557.547 525.906 589.322 509.655 620.399C502.502 602.759 494.783 585.303 487.31 567.795L451.342 483.462L436.029 447.738C433.49 441.809 430.048 435.396 428.532 429.166C428.207 427.632 427.01 426.751 425.77 425.913C421.582 423.081 416.908 420.713 412.542 418.145C405.639 414.084 398.821 409.865 391.973 405.712L307.788 354.646C292.756 345.537 277.096 336.841 262.538 327.022C263.882 312.151 265.091 296.931 267.303 282.174Z"/>
</svg>
