<?xml version="1.0" encoding="utf-8" ?>
<svg xmlns="http://www.w3.org/2000/svg" xmlns:xlink="http://www.w3.org/1999/xlink" width="1019" height="976">
	<path fill="#CCAC66" d="M0 0L1018.13 0C1018.56 0.74576 1018.84 1.28506 1018.91 2.1618C1019.62 10.9198 1019 20.1986 1019 29.0015L1019.01 84.053L1019.02 249.69L1019.01 291.948C1019.01 296.994 1019.83 303.52 1018.83 308.394C1018.72 308.895 1018.52 309.389 1018.34 309.864C1019.03 311.676 1019.07 312.502 1018.34 314.369C1020.02 318.689 1019.02 460.221 1019.02 476.061L1019.01 602.855C1019.01 624.568 1019.52 646.42 1018.96 668.117C1018.93 669.21 1018.74 670.01 1018.34 671.025C1019.15 673.136 1019 675.256 1019.01 677.479L1019 901.866C1019 909.709 1019.89 971.71 1018.65 975.056C1018.5 975.447 1018.36 975.629 1018.13 976L510.009 976L509.411 976L0 976L0 670.991L0 315.363L0 310.355L0 0ZM509.382 622.006C510.505 623.935 509.815 878.26 509.815 911.742L509.815 954.025C509.816 961.058 509.241 968.669 509.997 975.619L510.009 976L1018.13 976C1018.36 975.629 1018.5 975.447 1018.65 975.056C1019.89 971.71 1019 909.709 1019 901.866L1019.01 677.479C1019 675.256 1019.15 673.136 1018.34 671.025C1018.74 670.01 1018.93 669.21 1018.96 668.117C1019.52 646.42 1019.01 624.568 1019.01 602.855L1019.02 476.061C1019.02 460.221 1020.02 318.689 1018.34 314.369C1002.63 324.308 986.372 333.5 970.414 343.044L885.041 394.411L595.231 569.481C585.169 575.561 511.118 619.47 509.382 622.006ZM0 315.363L0 670.991L0 976L509.411 976L510.009 976L509.997 975.619C509.241 968.669 509.816 961.058 509.815 954.025L509.815 911.742C509.815 878.26 510.505 623.935 509.382 622.006C507.777 622.059 506.951 621.872 505.542 621.104C490.525 612.919 475.919 603.214 461.277 594.349L369.415 538.675L128.618 392.966C85.8177 367.069 43.2878 340.426 0 315.363ZM0 0L0 310.355C8.37632 305.883 16.4489 300.566 24.6241 295.708L73.3093 266.854L231.755 172.583L415.68 63.1287L473.911 28.4692C485.205 21.7564 496.696 15.262 507.75 8.1677C519.598 15.5805 531.8 22.5377 543.81 29.6887L613.786 71.3146L816.059 191.668L936.887 263.628L988.641 294.421C996.689 299.222 1004.88 305.042 1013.31 309.031C1015.18 309.912 1016.53 308.999 1018.34 309.864C1018.52 309.389 1018.72 308.895 1018.83 308.394C1019.83 303.52 1019.01 296.994 1019.01 291.948L1019.02 249.69L1019.01 84.053L1019 29.0015C1019 20.1986 1019.62 10.9198 1018.91 2.1618C1018.84 1.28506 1018.56 0.74576 1018.13 0L0 0Z"/>
	<path fill="#595C79" d="M0 315.363C43.2878 340.426 85.8177 367.069 128.618 392.966L369.415 538.675L461.277 594.349C475.919 603.214 490.525 612.919 505.542 621.104C506.951 621.872 507.777 622.059 509.382 622.006C510.505 623.935 509.815 878.26 509.815 911.742L509.815 954.025C509.816 961.058 509.241 968.669 509.997 975.619L510.009 976L509.411 976L0 976L0 670.991L0 315.363ZM0 670.991L0 976L509.411 976C505.636 972.651 500.113 970.052 495.742 967.436L467.487 950.567L362.604 887.826L122.707 744.282L44.6634 697.585C29.8275 688.697 15.0918 679.429 0 670.991Z"/>
	<path fill="#87828B" d="M509.382 622.006C511.118 619.47 585.169 575.561 595.231 569.481L885.041 394.411L970.414 343.044C986.372 333.5 1002.63 324.308 1018.34 314.369C1020.02 318.689 1019.02 460.221 1019.02 476.061L1019.01 602.855C1019.01 624.568 1019.52 646.42 1018.96 668.117C1018.93 669.21 1018.74 670.01 1018.34 671.025C1019.15 673.136 1019 675.256 1019.01 677.479L1019 901.866C1019 909.709 1019.89 971.71 1018.65 975.056C1018.5 975.447 1018.36 975.629 1018.13 976L510.009 976L509.997 975.619C509.241 968.669 509.816 961.058 509.815 954.025L509.815 911.742C509.815 878.26 510.505 623.935 509.382 622.006ZM509.997 975.619L510.009 976L1018.13 976C1018.36 975.629 1018.5 975.447 1018.65 975.056C1019.89 971.71 1019 909.709 1019 901.866L1019.01 677.479C1019 675.256 1019.15 673.136 1018.34 671.025C1003.62 680.228 988.554 688.918 973.651 697.822L904.088 739.55L682.245 872.508L564.204 943.246L527.429 965.294C521.798 968.668 515.919 972.862 509.997 975.619Z"/>
</svg>
