<?xml version="1.0" encoding="utf-8" ?>
<svg xmlns="http://www.w3.org/2000/svg" xmlns:xlink="http://www.w3.org/1999/xlink" width="1043" height="998">
	<path fill="#EFFEFE" d="M0 0L504.353 0L505.545 0L1042.11 0C1042.55 0.774534 1042.84 1.35574 1042.92 2.25879C1043.83 12.2366 1043.04 23.0151 1043.02 33.0587L1042.98 95.358L1043 283.374L1043.05 328.387C1043.05 334.264 1044 343.264 1042.6 348.754L1042.57 349.826C1044.01 356.583 1043.02 377.623 1043.02 385.983L1043 473.053L1043 822.037L1043.02 940.837L1043.02 977.593C1043.02 983.437 1043.48 989.659 1042.94 995.454C1042.84 996.454 1042.61 997.142 1042.11 998L0 998L0 688.996L0 382.53L0 308.323L0 307.888L0 0ZM0 308.323L0 382.53L0 688.996L0 998L1042.11 998C1042.61 997.142 1042.84 996.454 1042.94 995.454C1043.48 989.659 1043.02 983.437 1043.02 977.593L1043.02 940.837L1043 822.037L1043 473.053L1043.02 385.983C1043.02 377.623 1044.01 356.583 1042.57 349.826C1040.09 355.069 1018.7 388.02 1015.24 389.928C1011.21 390.683 971.911 414.684 965.795 418.248C943.314 431.348 920.208 443.902 898.159 457.694C881.091 467.341 863.883 477.004 847.165 487.24C833.687 495.493 820.478 504.279 807.151 512.78C796.186 519.775 783.559 526.69 773.272 534.394C764.769 539.634 755.554 544.675 747.658 550.778C727.541 562.366 708.5 576.019 688.639 588.072C675.911 595.797 662.849 603.067 649.97 610.54L571.686 655.966L530.534 679.888C523.793 683.805 516.962 688.443 509.906 691.69L509.374 691.967C508.957 683.386 509.279 674.652 509.278 666.056Q509.196 643.658 509.385 621.261Q420.179 575.26 334.395 523.157Q302.373 503.63 270.65 483.62C257.726 475.463 245.004 466.705 231.72 459.149L231.836 458.717L231.171 458.571C192.175 433.919 153.723 408.312 115.032 383.176C76.6874 358.264 37.9914 333.764 0 308.323ZM0 0L0 307.888L0 308.323C37.9914 333.764 76.6874 358.264 115.032 383.176C153.723 408.312 192.175 433.919 231.171 458.571L231.836 458.717L588.77 300.858C590.629 301.827 592.544 302.538 594.502 303.272C593.453 302.093 592.057 301.493 590.81 300.57C590.562 300.386 590.331 300.179 590.091 299.983L589.233 300.235L588.365 299.977L531.989 98.479L515.092 38.059C512.017 27.1122 508.627 16.1709 505.894 5.13854C505.471 3.43247 505.189 2.37163 505.743 0.689977L505.545 0L504.353 0L0 0ZM505.545 0L505.743 0.689977L672.528 95.0888C698.58 109.833 725.437 124.065 751.035 139.501C770.082 150.987 788.6 163.657 807.286 175.733L914.728 245.181L985.549 290.947C994.448 296.692 1010.37 305.607 1017.52 312.206C1020.17 314.643 1041.15 345.237 1042.6 348.754C1044 343.264 1043.05 334.264 1043.05 328.387L1043 283.374L1042.98 95.358L1043.02 33.0587C1043.04 23.0151 1043.83 12.2366 1042.92 2.25879C1042.84 1.35574 1042.55 0.774534 1042.11 0L505.545 0Z"/>
	<path fill="#C0F7FE" d="M588.77 300.858C590.629 301.827 592.544 302.538 594.502 303.272C601.897 306.897 609.712 309.826 617.3 313.029L649.562 326.86L756.754 372.518L820.306 399.604C829.924 403.711 841.791 409.874 851.581 412.512Q791.803 448.228 733.712 486.626L698.694 509.419C692.293 513.59 685.502 517.597 679.403 522.195C673.146 507.885 667.438 493.29 661.518 478.835L630.045 401.965L602.904 335.676C598.181 324.14 593.118 312.641 588.761 300.971L534.188 521.567L518.63 584.535C515.746 596.024 511.811 607.995 510.144 619.697C508.658 630.127 509.71 645.594 509.705 656.74C509.7 667.99 508.773 680.596 509.906 691.69L509.374 691.967C508.957 683.386 509.279 674.652 509.278 666.056Q509.196 643.658 509.385 621.261Q420.179 575.26 334.395 523.157Q302.373 503.63 270.65 483.62C257.726 475.463 245.004 466.705 231.72 459.149L231.836 458.717L588.77 300.858Z"/>
	<defs>
		<linearGradient id="gradient_0" gradientUnits="userSpaceOnUse" x1="400.0206" y1="467.9838" x2="424.07523" y2="109.22227">
			<stop offset="0" stop-color="#DBFEFF"/>
			<stop offset="1" stop-color="#FAFFFF"/>
		</linearGradient>
	</defs>
	<path fill="url(#gradient_0)" d="M0 0L504.353 0L505.545 0L505.743 0.689977C505.189 2.37163 505.471 3.43247 505.894 5.13854C508.627 16.1709 512.017 27.1122 515.092 38.059L531.989 98.479L588.365 299.977L589.233 300.235L590.091 299.983C590.331 300.179 590.562 300.386 590.81 300.57C592.057 301.493 593.453 302.093 594.502 303.272C592.544 302.538 590.629 301.827 588.77 300.858L231.836 458.717L231.171 458.571C192.175 433.919 153.723 408.312 115.032 383.176C76.6874 358.264 37.9914 333.764 0 308.323L0 307.888L0 0ZM0 0L0 307.888C1.12919 307.123 2.32578 306.434 3.48923 305.72C8.4949 301.79 14.9343 298.711 20.4517 295.407L56.8073 273.674C94.9191 250.907 132.798 227.609 171.209 205.362C175.065 202.081 180.852 199.489 185.25 196.877L219.015 176.826L342.741 103.39L344.439 102.354C362.262 90.4959 380.507 79.1819 398.543 67.6459L504.353 0L0 0Z"/>
	<path fill="#C0F7FE" d="M171.209 205.362C175.065 202.081 180.852 199.489 185.25 196.877L219.015 176.826L342.741 103.39C340.776 111.197 326.92 130.706 321.957 138.782L265.432 230.603L247.145 260.258C243.662 265.909 239.852 271.546 236.803 277.442C231.755 273.783 227.136 267.267 222.95 262.576L182.873 217.602C180.988 215.476 174.317 206.916 172.518 205.836C172.12 205.597 171.645 205.52 171.209 205.362Z"/>
	<path fill="#C0F7FE" d="M504.353 0L505.545 0L505.743 0.689977C505.189 2.37163 505.471 3.43247 505.894 5.13854C508.627 16.1709 512.017 27.1122 515.092 38.059L531.989 98.479L588.365 299.977C585.947 299.692 539.313 260.996 533.583 256.347L402.117 149.686L364.428 119.106C357.869 113.789 350.168 108.532 344.439 102.354C362.262 90.4959 380.507 79.1819 398.543 67.6459L504.353 0Z"/>
	<path fill="#C0F7FE" d="M171.209 205.362C171.645 205.52 172.12 205.597 172.518 205.836C174.317 206.916 180.988 215.476 182.873 217.602L222.95 262.576C227.136 267.267 231.755 273.783 236.803 277.442L236.835 277.837C235.407 293.101 235.741 308.807 235.297 324.157L232.723 414.321L231.934 442.08C231.778 447.516 231.95 453.192 231.171 458.571C192.175 433.919 153.723 408.312 115.032 383.176C76.6874 358.264 37.9914 333.764 0 308.323L0 307.888C1.12919 307.123 2.32578 306.434 3.48923 305.72C8.4949 301.79 14.9343 298.711 20.4517 295.407L56.8073 273.674C94.9191 250.907 132.798 227.609 171.209 205.362Z"/>
	<path fill="#EFFEFE" d="M171.209 205.362C171.645 205.52 172.12 205.597 172.518 205.836C174.317 206.916 180.988 215.476 182.873 217.602L222.95 262.576C227.136 267.267 231.755 273.783 236.803 277.442L236.835 277.837C228.974 278.122 220.972 279.557 213.17 280.567L173.263 285.715L44.6336 302.276C38.369 303.084 8.7815 307.664 5.32639 306.916C4.88058 306.819 4.33108 306.668 3.97834 306.338C3.78659 306.158 3.65227 305.926 3.48923 305.72C8.4949 301.79 14.9343 298.711 20.4517 295.407L56.8073 273.674C94.9191 250.907 132.798 227.609 171.209 205.362Z"/>
	<defs>
		<linearGradient id="gradient_1" gradientUnits="userSpaceOnUse" x1="679.8941" y1="819.98212" x2="679.46912" y2="957.59888">
			<stop offset="0" stop-color="#86C6F9"/>
			<stop offset="1" stop-color="#D9EFFD"/>
		</linearGradient>
	</defs>
	<path fill="url(#gradient_1)" d="M569.825 827.505C570.055 826.378 570.054 825.226 570.234 824.09C570.458 822.682 570.573 821.749 571.847 820.926C573.177 820.068 575.776 820.018 577.34 819.996C583.567 819.91 589.828 820.62 596.068 820.575L716.72 820.417L746.025 820.401C756.345 820.302 777.731 818.282 786.625 821.601C788.687 822.371 789.532 823.188 790.452 825.189C770.967 837.604 751.063 849.436 731.35 861.491L631.541 922.529Q594.341 945.319 556.914 967.735C541.959 976.853 527.166 986.573 511.902 995.142L511.703 994.729C512.56 992.645 562.407 963.287 568.832 959.219C570.961 954.561 569.59 841.278 569.825 827.505Z"/>
	<defs>
		<linearGradient id="gradient_2" gradientUnits="userSpaceOnUse" x1="846.30829" y1="640.60956" x2="1079.5894" y2="496.17126">
			<stop offset="0" stop-color="#83C1F6"/>
			<stop offset="1" stop-color="#E3F3FF"/>
		</linearGradient>
	</defs>
	<path fill="url(#gradient_2)" d="M898.159 457.694C920.208 443.902 943.314 431.348 965.795 418.248C971.911 414.684 1011.21 390.683 1015.24 389.928C1015.86 391.472 1015.94 392.658 1015.97 394.306C1016.38 421.156 1015.96 448.071 1015.95 474.927L1015.63 640.668C1015.61 646.678 1016.36 684.496 1015.53 686.562C1015.43 686.799 1015.32 687.03 1015.22 687.264C1013.49 689.517 922.815 745.163 912.116 750.815L911.944 750.208C912.413 749.274 912.18 749.52 912.832 748.9C913.733 748.043 914.508 747.565 914.854 746.307C912.258 739.61 919.396 716.012 918.337 711.473C917.19 706.561 916.166 701.033 914.194 696.383C911.602 690.271 907.664 684.699 904.816 678.673C899.703 667.854 895.007 656.812 889.701 646.084C885.624 637.841 880.812 629.945 876.897 621.609C875.036 617.648 874.952 613.199 873.11 609.047C869.256 606.947 865.543 604.61 861.661 602.538C860.173 601.743 859.001 600.748 857.335 601.25L857.017 600.81C856.065 597.628 859.724 590.68 860.383 587.176C860.125 586.686 859.9 585.869 859.349 585.666C857.902 585.134 856.483 584.911 855.098 584.162C844.901 578.647 778.517 540.007 773.272 534.394C783.559 526.69 796.186 519.775 807.151 512.78C820.478 504.279 833.687 495.493 847.165 487.24C863.883 477.004 881.091 467.341 898.159 457.694Z"/>
	<defs>
		<linearGradient id="gradient_3" gradientUnits="userSpaceOnUse" x1="791.41772" y1="568.06403" x2="918.41815" y2="501.26917">
			<stop offset="0" stop-color="#A0D2FA"/>
			<stop offset="1" stop-color="#D3EAFC"/>
		</linearGradient>
	</defs>
	<path fill="url(#gradient_3)" d="M773.272 534.394C783.559 526.69 796.186 519.775 807.151 512.78C820.478 504.279 833.687 495.493 847.165 487.24C863.883 477.004 881.091 467.341 898.159 457.694C892.771 478.403 886.479 498.921 880.553 519.487Q869.079 560.234 857.017 600.81C856.065 597.628 859.724 590.68 860.383 587.176C860.125 586.686 859.9 585.869 859.349 585.666C857.902 585.134 856.483 584.911 855.098 584.162C844.901 578.647 778.517 540.007 773.272 534.394Z"/>
	<path fill="#62AFF1" d="M773.272 534.394C778.517 540.007 844.901 578.647 855.098 584.162C856.483 584.911 857.902 585.134 859.349 585.666C859.9 585.869 860.125 586.686 860.383 587.176C859.724 590.68 856.065 597.628 857.017 600.81L857.335 601.25C859.001 600.748 860.173 601.743 861.661 602.538C865.543 604.61 869.256 606.947 873.11 609.047C874.952 613.199 875.036 617.648 876.897 621.609C880.812 629.945 885.624 637.841 889.701 646.084C895.007 656.812 899.703 667.854 904.816 678.673C907.664 684.699 911.602 690.271 914.194 696.383C916.166 701.033 917.19 706.561 918.337 711.473C919.396 716.012 912.258 739.61 914.854 746.307C914.508 747.565 913.733 748.043 912.832 748.9C912.18 749.52 912.413 749.274 911.944 750.208L912.116 750.815C906.051 755.314 898.963 759.052 892.495 763.002L854.619 786.12L829.718 801.329C825.997 803.604 822.008 806.6 818.014 808.312C811.532 812.6 796.981 822.304 790.452 825.189C789.532 823.188 788.687 822.371 786.625 821.601C777.731 818.282 756.345 820.302 746.025 820.401L716.72 820.417L596.068 820.575C589.828 820.62 583.567 819.91 577.34 819.996C575.776 820.018 573.177 820.068 571.847 820.926C570.573 821.749 570.458 822.682 570.234 824.09C570.054 825.226 570.055 826.378 569.825 827.505C569.409 824.944 569.435 822.215 569.293 819.622C569.223 819.495 569.138 819.375 569.084 819.241C568.044 816.656 568.604 789.722 568.585 784.944C568.434 784.898 568.276 784.872 568.133 784.805C567.029 784.287 566.228 782.91 565.504 781.953Q551.041 782.456 536.569 782.44C531.026 782.425 524.67 781.547 519.283 782.558C518.305 782.742 517.77 782.455 516.975 781.948C511.256 782.163 514.699 781.479 510.153 783.749C509.341 790.509 509.939 797.89 509.959 804.716C509.987 814.775 509.689 824.768 509.465 834.821C509.33 840.888 509.532 846.978 508.977 853.026Q508.783 848.508 508.643 843.988C507.982 828.735 509.067 812.868 509.128 797.54L509.374 691.967L509.906 691.69C516.962 688.443 523.793 683.805 530.534 679.888L571.686 655.966L649.97 610.54C662.849 603.067 675.911 595.797 688.639 588.072C708.5 576.019 727.541 562.366 747.658 550.778C755.554 544.675 764.769 539.634 773.272 534.394Z"/>
	<path fill="#89C8FB" d="M773.272 534.394C778.517 540.007 844.901 578.647 855.098 584.162C856.483 584.911 857.902 585.134 859.349 585.666C859.9 585.869 860.125 586.686 860.383 587.176C859.724 590.68 856.065 597.628 857.017 600.81L857.335 601.25C859.001 600.748 860.173 601.743 861.661 602.538C865.543 604.61 869.256 606.947 873.11 609.047C874.952 613.199 875.036 617.648 876.897 621.609C880.812 629.945 885.624 637.841 889.701 646.084C895.007 656.812 899.703 667.854 904.816 678.673C907.664 684.699 911.602 690.271 914.194 696.383C916.166 701.033 917.19 706.561 918.337 711.473C919.396 716.012 912.258 739.61 914.854 746.307C914.508 747.565 913.733 748.043 912.832 748.9C912.18 749.52 912.413 749.274 911.944 750.208L912.116 750.815C906.051 755.314 898.963 759.052 892.495 763.002L854.619 786.12L829.718 801.329C825.997 803.604 822.008 806.6 818.014 808.312C811.532 812.6 796.981 822.304 790.452 825.189C789.532 823.188 788.687 822.371 786.625 821.601C777.731 818.282 756.345 820.302 746.025 820.401L716.72 820.417L596.068 820.575C589.828 820.62 583.567 819.91 577.34 819.996C575.776 820.018 573.177 820.068 571.847 820.926C570.573 821.749 570.458 822.682 570.234 824.09C570.054 825.226 570.055 826.378 569.825 827.505C569.409 824.944 569.435 822.215 569.293 819.622C570.205 808.657 569.563 797.342 570.161 786.299C571.613 788.927 569.286 813.335 570.831 815.07C571.474 814.64 572.451 813.847 573.205 813.671C575.863 813.048 583.831 814.168 587.12 814.183C598.301 814.234 609.506 813.853 620.699 813.889L751.621 813.836C761.167 813.821 770.712 814.48 780.237 814.41C773.289 810.211 731.572 786.46 729.263 783.22C725.653 780.915 721.442 779.03 718.151 776.309L718.728 776.079L720.192 776.79C728.132 773.31 736.065 767.231 742.76 761.705C744.207 760.512 745.367 759.023 746.801 757.845C748.489 756.458 751.089 755.269 752.369 753.53C752.475 753.386 752.551 753.222 752.643 753.068L753.264 753.353C754.331 752.32 755.387 751.26 756.601 750.399C756.826 750.239 757.058 750.088 757.285 749.931C762.798 746.109 769.779 737.198 773.724 731.681C776.99 727.114 787.112 710.23 788.002 705.006C788.632 701.311 791.146 700.791 792.624 697.745C790.817 687.36 788.862 677.015 787.211 666.619C786.498 662.129 786.359 657.638 785.46 653.156L777.087 613.352C776.119 608.876 774.666 604.429 773.891 599.925C772.73 593.179 771.732 586.366 770.502 579.639C769.25 572.796 767.387 565.966 766.078 559.099C765.055 553.737 764.919 547.284 762.873 542.298C758.753 544.842 752.763 549.685 748.075 550.702C747.937 550.732 747.797 550.752 747.658 550.778C755.554 544.675 764.769 539.634 773.272 534.394Z"/>
	<path fill="#62AFF1" d="M857.335 601.25C859.001 600.748 860.173 601.743 861.661 602.538C865.543 604.61 869.256 606.947 873.11 609.047C874.952 613.199 875.036 617.648 876.897 621.609C880.812 629.945 885.624 637.841 889.701 646.084C895.007 656.812 899.703 667.854 904.816 678.673C907.664 684.699 911.602 690.271 914.194 696.383C916.166 701.033 917.19 706.561 918.337 711.473C919.396 716.012 912.258 739.61 914.854 746.307C914.508 747.565 913.733 748.043 912.832 748.9C912.18 749.52 912.413 749.274 911.944 750.208L912.116 750.815C906.051 755.314 898.963 759.052 892.495 763.002L854.619 786.12L829.718 801.329C825.997 803.604 822.008 806.6 818.014 808.312C814.524 807.937 801.892 817.164 798.389 819.244C797.611 819.706 796.777 820.255 795.875 820.062C796.739 811.921 802.366 803.005 802.346 795.229C802.345 794.902 802.33 794.575 802.321 794.248Q819.906 730.179 838.528 666.403C844.819 644.721 851.601 623.081 857.335 601.25Z"/>
	<defs>
		<linearGradient id="gradient_4" gradientUnits="userSpaceOnUse" x1="329.83618" y1="602.89423" x2="189.36717" y2="813.91547">
			<stop offset="0" stop-color="#5DA5E9"/>
			<stop offset="1" stop-color="#9ABEE8"/>
		</linearGradient>
	</defs>
	<path fill="url(#gradient_4)" d="M0 308.323C37.9914 333.764 76.6874 358.264 115.032 383.176C153.723 408.312 192.175 433.919 231.171 458.571L231.836 458.717L231.72 459.149C245.004 466.705 257.726 475.463 270.65 483.62Q302.373 503.63 334.395 523.157Q420.179 575.26 509.385 621.261Q509.196 643.659 509.278 666.056C509.279 674.652 508.957 683.386 509.374 691.967L509.128 797.54C509.067 812.868 507.982 828.735 508.643 843.988Q508.783 848.508 508.977 853.026C509.532 846.978 509.33 840.888 509.465 834.821C509.689 824.768 509.987 814.775 509.959 804.716C509.939 797.89 509.341 790.509 510.153 783.749C514.699 781.479 511.256 782.163 516.975 781.948C517.77 782.455 518.305 782.742 519.283 782.558C524.67 781.547 531.026 782.425 536.569 782.44Q551.041 782.456 565.504 781.953C566.228 782.91 567.029 784.287 568.133 784.805C568.276 784.872 568.434 784.898 568.585 784.944C568.604 789.722 568.044 816.656 569.084 819.241C569.138 819.375 569.223 819.495 569.293 819.622C569.435 822.215 569.409 824.944 569.825 827.505C569.59 841.278 570.961 954.561 568.832 959.219C562.407 963.287 512.56 992.645 511.703 994.729L511.902 995.142L510.229 996.717C509.839 996.748 509.44 996.901 509.059 996.811C507.128 996.355 489.61 985.035 486.493 983.141L409.623 936.637L0 688.996L0 382.53L0 308.323Z"/>
	<path fill="#89C8FB" d="M359.194 892.529C360.832 891.595 361.165 891.587 362.963 891.593L364.231 890.276Q362.302 894.166 360.13 897.926C359.769 896.179 359.209 894.31 359.194 892.529Z"/>
	<path fill="#62AFF1" d="M92.4 448.907C91.8365 457.588 94.5975 475.901 95.4669 485.493C95.769 488.827 96.3364 492.374 96.0989 495.713L95.5 496.061C93.591 494.488 93.1371 491.822 91.7971 489.791C83.3499 476.987 75.8215 463.565 68.2218 450.241C66.5893 447.378 65.2652 444.174 63.6049 441.407C60.1606 435.667 55.3832 429.849 52.7845 423.726C52.7243 423.584 52.669 423.44 52.6112 423.297C51.9627 423.041 52.3048 423.198 51.5946 422.804L51.5239 420.79L52.204 421.457L52.0356 421.091C53.0759 421.753 54.2483 422.071 55.4108 422.454C67.8896 430.833 80.4663 439.77 92.4 448.907Z"/>
	<defs>
		<linearGradient id="gradient_5" gradientUnits="userSpaceOnUse" x1="302.76865" y1="599.99219" x2="185.15056" y2="668.51404">
			<stop offset="0" stop-color="#2975D1"/>
			<stop offset="1" stop-color="#639DDF"/>
		</linearGradient>
	</defs>
	<path fill="url(#gradient_5)" d="M343.385 823.474C341.155 821.667 339.399 819.311 336.993 817.461C328.981 811.299 319.794 806.302 311.379 800.68C307.567 798.133 304.067 794.846 300.465 791.998C295.993 788.462 291.29 785.177 286.716 781.771Q276.068 773.776 265.311 765.929C255.507 758.904 244.298 752.162 236.474 742.877C233.886 739.806 232.577 735.773 230.21 732.539C227.704 729.115 224.76 725.996 222.23 722.575C218.063 716.941 214.439 710.95 210.109 705.427C206.357 700.641 194.218 686.933 193.422 681.967C193.051 679.648 191.966 677.465 191.721 675.127C191.544 673.441 192.006 671.692 192.156 670.017C192.492 666.257 191.894 662.393 190.814 658.796C186.622 644.826 180.408 630.501 174.692 617.045C173.111 613.323 170.419 609.384 169.236 605.593C168.998 604.831 169.015 604.166 169.043 603.387C169.179 599.504 164.948 596.591 164.786 592.518C164.774 592.236 164.778 591.147 164.721 590.844C164.339 588.808 152.478 560.48 150.96 558.37C149.766 556.709 147.688 555.472 146.036 554.286C148.958 551.654 152.866 550.363 155.803 547.655C156.223 545.848 155.417 543.569 154.737 541.896C152.05 535.275 147.904 529.177 144.574 522.875C142.015 518.035 140.399 512.58 137.572 507.899C134.901 503.476 131.139 499.907 128.759 495.213C127.018 491.78 126.92 486.487 124.808 483.535C124.079 482.517 122.954 481.924 122.151 481.017C121.401 480.17 120.97 478.467 120.365 477.446C118.616 474.492 115.727 471.632 114.481 468.471C114.092 467.483 114.399 468.023 113.98 467.292C113.832 467.035 113.32 466.21 113.264 466.053C113.173 465.8 113.184 465.522 113.144 465.256L113.124 465.31L114.003 466.811L114.268 465.656C121.416 470.266 152.654 495.09 157.91 496.492C158.077 496.536 158.251 496.547 158.421 496.575C164.786 500.599 170.851 505.25 176.97 509.64C193.243 521.314 209.304 533.567 225.922 544.726C247.714 556.532 270.145 567.224 291.83 579.208L328.144 748.079Q333.419 773.092 338.441 798.157C340.099 806.546 341.175 815.226 343.385 823.474Z"/>
	<defs>
		<linearGradient id="gradient_6" gradientUnits="userSpaceOnUse" x1="476.87817" y1="652.77057" x2="287.77823" y2="800.22583">
			<stop offset="0" stop-color="#2F7BD4"/>
			<stop offset="1" stop-color="#7EB0E5"/>
		</linearGradient>
	</defs>
	<path fill="url(#gradient_6)" d="M291.83 579.208C345.2 606.071 397.892 634.372 451.02 661.724L490.627 682.369C496.62 685.498 503.074 689.64 509.374 691.967L509.128 797.54C509.067 812.868 507.982 828.735 508.643 843.988C507.974 843.556 507.533 843.241 506.732 843.104C501.502 842.21 494.549 843.695 489.171 843.839C479.814 844.089 470.306 844.014 460.941 843.947C451.88 843.883 396.668 843.24 393.087 844.519C392.197 844.837 392.404 844.747 392.101 845.47C390.715 848.769 388.332 851.59 386.504 854.683C381.961 862.374 377.366 870.106 373.097 877.953L372.342 878.201L372.202 878.031L372.896 877.374L372.435 877.368L373.225 875.423C372.523 876.04 372.311 876.387 371.86 877.171C369.496 881.279 365.614 885.791 364.231 890.276L362.963 891.593C361.165 891.587 360.832 891.595 359.194 892.529C359.104 886.694 353.812 865.686 352.017 858.826L355.008 876.193C351.16 863.256 348.94 849.478 346.154 836.256C345.266 832.041 344.596 827.602 343.385 823.474C341.175 815.226 340.099 806.546 338.441 798.157Q333.419 773.092 328.144 748.079L291.83 579.208Z"/>
	<path fill="#89C8FB" d="M0 308.323C37.9914 333.764 76.6874 358.264 115.032 383.176C153.723 408.312 192.175 433.919 231.171 458.571L231.836 458.717L231.72 459.149C245.004 466.705 257.726 475.463 270.65 483.62Q302.373 503.63 334.395 523.157Q420.179 575.26 509.385 621.261Q509.196 643.659 509.278 666.056C509.279 674.652 508.957 683.386 509.374 691.967C503.074 689.64 496.62 685.498 490.627 682.369L451.02 661.724C397.892 634.372 345.2 606.071 291.83 579.208C270.145 567.224 247.714 556.532 225.922 544.726C209.304 533.567 193.243 521.314 176.97 509.64C170.851 505.25 164.786 500.599 158.421 496.575C157.63 494.852 99.3984 453.916 92.4 448.907C80.4663 439.77 67.8896 430.833 55.4108 422.454C49.387 417.469 42.5879 413.082 36.2241 408.525L0 382.53L0 308.323Z"/>
</svg>
